<?xml version="1.0" encoding="UTF-8" standalone="no"?>
<!-- Created with Inkscape (http://www.inkscape.org/) -->

<svg
   width="100mm"
   height="100mm"
   viewBox="0 0 100 100"
   version="1.1"
   id="svg1"
   inkscape:version="1.3 (0e150ed, 2023-07-21)"
   sodipodi:docname="qlogo-color.svg"
   xmlns:inkscape="http://www.inkscape.org/namespaces/inkscape"
   xmlns:sodipodi="http://sodipodi.sourceforge.net/DTD/sodipodi-0.dtd"
   xmlns:xlink="http://www.w3.org/1999/xlink"
   xmlns="http://www.w3.org/2000/svg"
   xmlns:svg="http://www.w3.org/2000/svg">
  <sodipodi:namedview
     id="namedview1"
     pagecolor="#ffffff"
     bordercolor="#000000"
     borderopacity="0.25"
     inkscape:showpageshadow="2"
     inkscape:pageopacity="0.0"
     inkscape:pagecheckerboard="0"
     inkscape:deskcolor="#d1d1d1"
     inkscape:document-units="mm"
     showgrid="true"
     inkscape:zoom="0.52520345"
     inkscape:cx="485.52614"
     inkscape:cy="172.31418"
     inkscape:window-width="1512"
     inkscape:window-height="916"
     inkscape:window-x="0"
     inkscape:window-y="38"
     inkscape:window-maximized="1"
     inkscape:current-layer="layer1">
    <inkscape:grid
       id="grid1"
       units="mm"
       originx="0"
       originy="0"
       spacingx="0.99999999"
       spacingy="0.99999999"
       empcolor="#0099e5"
       empopacity="0.30196078"
       color="#0099e5"
       opacity="0.14901961"
       empspacing="5"
       dotted="false"
       gridanglex="30"
       gridanglez="30"
       visible="true" />
  </sodipodi:namedview>
  <defs
     id="defs1">
    <linearGradient
       id="linearGradient2"
       inkscape:collect="always">
      <stop
         style="stop-color:#ff0271;stop-opacity:1;"
         offset="0"
         id="stop2" />
      <stop
         style="stop-color:#ff5c01;stop-opacity:1;"
         offset="1"
         id="stop3" />
    </linearGradient>
    <linearGradient
       inkscape:collect="always"
       xlink:href="#linearGradient2"
       id="linearGradient3"
       x1="1.0075459"
       y1="9.7494599e-08"
       x2="100.25083"
       y2="99.747063"
       gradientUnits="userSpaceOnUse" />
  </defs>
  <g
     inkscape:label="Layer 1"
     inkscape:groupmode="layer"
     id="layer1">
    <rect
       style="fill:url(#linearGradient3);stroke-width:0.267296;fill-opacity:1"
       id="rect1"
       width="99.747063"
       height="99.747063"
       x="0.12646806"
       y="0.12646866" />
    <path
       style="fill:#ffffff;stroke-width:1.65556"
       d="M 43.852507,83.765501 C 30.962632,81.367284 20.470861,71.897475 16.909724,59.447088 15.630156,54.973489 15.292907,47.561944 16.179512,43.399657 19.697624,26.883421 33.382693,15.649774 49.984992,15.649774 c 13.263208,0 24.856853,7.19614 30.68864,19.048355 2.444233,4.967537 3.253321,8.052796 3.565717,13.596981 0.182687,3.242207 0.05081,5.372206 -0.501753,8.103654 -0.718694,3.552708 -3.090676,10.056872 -3.667607,10.056872 -0.152163,0 -1.589608,-1.302879 -3.194328,-2.895316 l -2.917672,-2.8953 0.888934,-2.470614 C 76.108615,54.687789 76.387634,47.47102 75.406701,43.715771 73.10095,34.888801 66.439637,27.779859 57.869615,25.00025 50.760069,22.694331 42.151842,23.802748 35.933538,27.824824 30.614108,31.2655 26.181082,37.37862 24.598003,43.456476 c -0.873725,3.354454 -0.864909,9.656756 0.01829,13.080164 2.363342,9.160566 9.966079,16.565026 19.454926,18.947548 3.555898,0.892845 10.06224,0.652391 13.702469,-0.506388 l 2.532286,-0.806094 3.050257,3.026884 c 3.532425,3.505359 3.633165,3.266726 -2.201362,5.214762 -6.047583,2.019159 -11.448698,2.441261 -17.302368,1.352149 z m 19.6039,-14.78758 -13.684983,-13.684974 -5.712645,5.690852 -5.712648,5.690852 -2.612736,-2.694116 c -1.437005,-1.481763 -2.612737,-2.864788 -2.612737,-3.073389 0,-0.208601 2.219378,-2.592364 4.931952,-5.297241 l 4.931951,-4.917952 1.967095,0.982113 c 2.716018,1.356023 6.913823,1.355411 9.631446,-0.0014 l 1.969903,-0.983504 13.247274,13.241928 13.247273,13.241945 -2.720535,2.744925 c -1.496294,1.509709 -2.825182,2.744942 -2.953083,2.744942 -0.127909,0 -6.390789,-6.158251 -13.917527,-13.684991 z M 46.068562,45.831979 c -3.565523,-3.130572 -2.472901,-8.76679 1.956785,-10.093957 6.159317,-1.845374 10.294385,5.830035 5.438041,10.093957 -1.272966,1.117688 -1.909569,1.350145 -3.697414,1.350145 -1.787845,0 -2.424446,-0.232457 -3.697412,-1.350145 z"
       id="path4"
       sodipodi:nodetypes="ssssssssscsssssssscsssssccssscsscccsssssssss" />
  </g>
</svg>
