<?xml version="1.0" encoding="UTF-8" standalone="no"?>
<svg
   width="852"
   height="387"
   viewBox="0 0 852 387"
   fill="none"
   version="1.1"
   id="svg9"
   sodipodi:docname="Quorum_inverse.svg"
   inkscape:version="1.3 (0e150ed, 2023-07-21)"
   xmlns:inkscape="http://www.inkscape.org/namespaces/inkscape"
   xmlns:sodipodi="http://sodipodi.sourceforge.net/DTD/sodipodi-0.dtd"
   xmlns="http://www.w3.org/2000/svg"
   xmlns:svg="http://www.w3.org/2000/svg">
  <defs
     id="defs9" />
  <sodipodi:namedview
     id="namedview9"
     pagecolor="#ffffff"
     bordercolor="#000000"
     borderopacity="0.25"
     inkscape:showpageshadow="2"
     inkscape:pageopacity="0.0"
     inkscape:pagecheckerboard="0"
     inkscape:deskcolor="#d1d1d1"
     inkscape:zoom="0.47183099"
     inkscape:cx="424.9403"
     inkscape:cy="191.80597"
     inkscape:window-width="1512"
     inkscape:window-height="916"
     inkscape:window-x="0"
     inkscape:window-y="38"
     inkscape:window-maximized="1"
     inkscape:current-layer="svg9" />
  <path
     d="M344.057 134.211C331.543 134.265 319.38 138.357 309.379 145.88L326.448 163.391C331.571 160.368 337.401 158.75 343.349 158.699C352.32 158.699 360.923 162.262 367.266 168.605C373.61 174.947 377.174 183.55 377.175 192.52C377.169 198.198 375.734 203.782 373.002 208.759H399.773C401.352 203.42 402.156 197.881 402.159 192.313C402.159 184.683 400.657 177.128 397.737 170.078C394.817 163.029 390.537 156.624 385.142 151.229C379.746 145.833 373.341 141.554 366.292 138.634C359.243 135.714 351.688 134.211 344.057 134.211ZM292.92 165.037C288.398 173.421 286.006 182.788 285.956 192.313C285.956 199.943 287.458 207.498 290.378 214.548C293.298 221.597 297.578 228.002 302.973 233.397C308.368 238.793 314.774 243.072 321.823 245.992C328.872 248.912 336.427 250.415 344.057 250.415C353.08 250.369 361.968 248.222 370.016 244.145L376.751 251.051H411.889L359.908 197.73H324.77L351.554 225.205C348.876 225.92 346.121 226.303 343.349 226.346C334.379 226.345 325.776 222.781 319.433 216.438C313.091 210.094 309.528 201.491 309.528 192.52C309.581 189.463 310.049 186.427 310.918 183.495L292.92 165.037Z"
     fill="white"
     id="path1"
     style="fill:#373036;fill-opacity:1" />
  <path
     d="M430.389 180.346L430.457 186.706C430.457 190.946 430.479 195.795 430.525 201.253C430.615 206.711 430.682 211.56 430.727 215.8C430.818 219.995 430.885 222.318 430.931 222.769C431.382 224.257 432.171 225.543 433.299 226.625C433.975 227.257 434.674 227.775 435.396 228.181L436.749 228.858C437.832 229.309 438.982 229.535 440.2 229.535C441.869 229.535 443.402 229.174 444.801 228.452L445.207 228.181L446.019 227.708V227.572C446.425 227.437 446.763 227.212 447.034 226.896C447.214 226.76 447.394 226.58 447.575 226.355C447.8 226.084 448.003 225.836 448.184 225.61C448.364 225.34 448.522 225.114 448.657 224.934C448.657 224.843 448.68 224.776 448.725 224.731H448.793V224.663L449.131 224.257L449.266 223.986L449.672 223.31C449.898 222.363 450.078 221.348 450.214 220.265V180.346H471.256V249.9L454.476 247.262L454.07 247.194L453.529 247.532C451.77 248.66 449.74 249.449 447.44 249.9C446.041 250.216 444.711 250.442 443.448 250.577H443.312C442.23 250.667 441.192 250.712 440.2 250.712C438.441 250.712 436.794 250.622 435.261 250.442H435.193C435.148 250.442 435.08 250.419 434.99 250.374L434.584 250.306C434.133 250.261 433.569 250.171 432.893 250.036C432.261 249.945 431.607 249.833 430.93 249.697C430.299 249.562 429.758 249.449 429.307 249.359L427.75 248.953C423.736 247.555 420.285 245.48 417.398 242.728L417.263 242.593C412.752 236.955 410.272 232.061 409.821 227.911C409.415 223.761 409.212 221.077 409.212 219.859V201.523L430.389 180.346ZM514.894 179.263C521.435 179.263 527.389 180.865 532.757 184.067C538.169 187.27 542.477 191.577 545.68 196.99C548.882 202.403 550.483 208.402 550.483 214.988C550.483 221.573 548.882 227.595 545.68 233.053C542.477 238.466 538.169 242.773 532.757 245.976C527.389 249.179 521.435 250.78 514.894 250.78C508.354 250.78 502.377 249.179 496.964 245.976C491.597 242.773 487.312 238.466 484.109 233.053C480.906 227.595 479.305 221.573 479.305 214.988C479.305 208.402 480.906 202.403 484.109 196.99C487.312 191.577 491.597 187.27 496.964 184.067C502.377 180.865 508.354 179.263 514.894 179.263ZM515.03 229.805C519.134 229.805 522.63 228.362 525.517 225.475C528.404 222.543 529.847 219.025 529.847 214.92C529.847 210.815 528.404 207.32 525.517 204.433C522.63 201.501 519.134 200.035 515.03 200.035C510.97 200.035 507.497 201.501 504.61 204.433C501.723 207.32 500.28 210.815 500.28 214.92C500.28 219.025 501.723 222.543 504.61 225.475C507.497 228.362 510.97 229.805 515.03 229.805ZM574.907 182.714C576.936 181.406 579.192 180.526 581.673 180.075H581.808C582.079 179.985 582.687 179.85 583.635 179.669C584.898 179.399 586.589 179.263 588.709 179.263H599.67V200.576H588.709C586.093 200.576 583.793 201.456 581.808 203.215C579.868 204.839 578.899 206.959 578.899 209.575V249.63H557.721V199.9L574.907 182.714ZM627.544 180.346L627.612 186.706C627.612 190.946 627.634 195.795 627.679 201.253C627.769 206.711 627.837 211.56 627.882 215.8C627.972 219.995 628.04 222.318 628.085 222.769C628.536 224.257 629.326 225.543 630.453 226.625C631.13 227.257 631.829 227.775 632.551 228.181L633.904 228.858C634.987 229.309 636.137 229.535 637.355 229.535C639.024 229.535 640.557 229.174 641.956 228.452L642.361 228.181L643.173 227.708V227.572C643.579 227.437 643.918 227.212 644.188 226.896C644.369 226.76 644.549 226.58 644.73 226.355C644.955 226.084 645.158 225.836 645.339 225.61C645.519 225.34 645.677 225.114 645.812 224.934C645.812 224.843 645.835 224.776 645.88 224.731H645.947V224.663L646.286 224.257L646.421 223.986L646.827 223.31C647.053 222.363 647.233 221.348 647.368 220.265V180.346H668.411V249.9L651.631 247.262L651.225 247.194L650.684 247.532C648.924 248.66 646.895 249.449 644.594 249.9C643.196 250.216 641.865 250.442 640.602 250.577H640.467C639.384 250.667 638.347 250.712 637.355 250.712C635.595 250.712 633.949 250.622 632.415 250.442H632.348C632.303 250.442 632.235 250.419 632.145 250.374L631.739 250.306C631.288 250.261 630.724 250.171 630.047 250.036C629.416 249.945 628.762 249.833 628.085 249.697C627.454 249.562 626.912 249.449 626.461 249.359L624.905 248.953C620.891 247.555 617.44 245.48 614.553 242.728L614.418 242.593C609.907 236.955 607.426 232.061 606.975 227.911C606.569 223.761 606.366 221.077 606.366 219.859V201.523L627.544 180.346ZM695.608 182.376C697.502 181.248 699.577 180.481 701.832 180.075C703.05 179.805 703.975 179.647 704.606 179.602C705.283 179.511 705.689 179.466 705.824 179.466C706.907 179.331 707.944 179.263 708.937 179.263C709.297 179.263 709.749 179.286 710.29 179.331C710.831 179.331 711.372 179.353 711.914 179.399C712.455 179.399 712.906 179.421 713.267 179.466C713.357 179.466 713.853 179.511 714.755 179.602C715.658 179.692 716.898 179.94 718.477 180.346C718.702 180.391 718.973 180.459 719.289 180.549C719.604 180.639 719.875 180.707 720.101 180.752C720.191 180.797 720.258 180.819 720.304 180.819L720.371 180.887H720.439L721.386 181.293C721.882 181.473 722.469 181.722 723.145 182.037C723.822 182.353 724.476 182.669 725.107 182.985C725.739 183.3 726.28 183.548 726.731 183.729C726.867 183.819 726.979 183.887 727.07 183.932C727.16 183.977 727.227 183.999 727.273 183.999V184.067H727.34L729.438 185.353C732.054 183.503 735.099 182.015 738.572 180.887C740.692 180.211 742.947 179.759 745.338 179.534L746.894 179.399C747.931 179.308 748.946 179.263 749.939 179.263C750.119 179.263 750.435 179.286 750.886 179.331C751.382 179.331 751.856 179.353 752.307 179.399C752.803 179.399 753.231 179.421 753.592 179.466C753.683 179.466 753.773 179.489 753.863 179.534H754.066L755.487 179.669L756.705 179.805L757.584 179.94L758.261 180.075C760.471 180.526 762.501 181.135 764.35 181.902H764.418C764.418 181.947 764.441 181.97 764.486 181.97C764.621 182.06 764.914 182.195 765.365 182.376C765.997 182.737 766.764 183.188 767.666 183.729C768.613 184.27 769.538 184.857 770.44 185.488C771.387 186.12 772.176 186.706 772.808 187.247C773.8 188.24 774.725 189.367 775.582 190.63L776.123 191.442L776.191 191.51H776.258C776.304 191.6 776.349 191.713 776.394 191.848C776.484 191.938 776.552 192.051 776.597 192.186C776.687 192.322 776.755 192.435 776.8 192.525L777.07 193.066C779.687 197.667 780.995 203.35 780.995 210.116V249.63H759.885V210.387C759.885 207.635 758.87 205.29 756.84 203.35C754.855 201.411 752.555 200.441 749.939 200.441C747.323 200.441 745.067 201.321 743.173 203.08C741.323 204.884 740.286 207.094 740.06 209.71V249.63H718.883V209.71L718.748 208.898L718.612 208.357C718.206 206.553 717.327 204.884 715.973 203.35C715.026 202.538 714.056 201.839 713.064 201.253L712.117 200.982C711.079 200.621 710.019 200.441 708.937 200.441C707.133 200.441 705.509 200.847 704.065 201.659L703.659 201.929C703.569 201.975 703.434 202.065 703.253 202.2C703.118 202.29 702.96 202.403 702.78 202.538C702.599 202.674 702.441 202.787 702.306 202.877L702.103 203.08C700.254 204.884 699.239 207.094 699.059 209.71V249.63H677.881V200.103L695.608 182.376Z"
     fill="white"
     id="path2"
     style="fill:#373036;fill-opacity:1" />
  <path
     d="M136.639 158.855L148.29 139.865L249.451 163.059L196.789 192.631L136.639 158.855Z"
     fill="#FFDEAC"
     stroke="#FFDEAC"
     stroke-width="0.82798"
     id="path3" />
  <path
     d="M196.789 192.631L136.504 226.484L149.039 245.609L249.451 222.198L196.789 192.631Z"
     fill="#C89850"
     stroke="#C89850"
     stroke-width="0.828"
     id="path4" />
  <path
     d="M136.623 158.889L116.18 192.349L116.365 192.633L116.045 193.134L136.505 226.485L196.79 192.633L136.641 158.857L136.623 158.889Z"
     fill="#EFC78A"
     stroke="#EFC78A"
     stroke-width="0.82798"
     id="path5" />
  <path
     d="M71 263.264C107.306 244.689 113.189 239.606 136.504 226.484C127.139 212.062 127.774 211.705 115.567 194.024C113.519 197.184 113.143 197.615 71 263.264Z"
     fill="#C89850"
     stroke="#C89850"
     id="path6" />
  <path
     d="M148.064 245.73L137.002 227.294L72.8791 263.27L148.064 245.73Z"
     fill="#A7772F"
     stroke="#A7772F"
     stroke-miterlimit="13.3"
     id="path7" />
  <path
     d="M72.5308 122.056L136.621 158.887L149.575 140.278L72.5308 122.056Z"
     fill="#C89850"
     stroke="#C89850"
     stroke-miterlimit="11.7"
     id="path8" />
  <path
     d="M71.0014 122L115.555 192.374L136.855 158.946L71.0014 122Z"
     fill="#A7772F"
     stroke="#A7772F"
     stroke-width="0.82798"
     stroke-miterlimit="6.9"
     id="path9" />
</svg>
